<?xml version="1.0" encoding="UTF-8" standalone="no"?>
<!-- Created with Inkscape (http://www.inkscape.org/) -->

<svg
   width="103.026mm"
   height="18.996mm"
   viewBox="0 0 103.026 18.996001"
   version="1.1"
   id="svg1"
   inkscape:version="1.3.2 (091e20e, 2023-11-25, custom)"
   sodipodi:docname="HRatliffConsulting_banner_purple-text_path.svg"
   xmlns:inkscape="http://www.inkscape.org/namespaces/inkscape"
   xmlns:sodipodi="http://sodipodi.sourceforge.net/DTD/sodipodi-0.dtd"
   xmlns="http://www.w3.org/2000/svg"
   xmlns:svg="http://www.w3.org/2000/svg">
  <sodipodi:namedview
     id="namedview1"
     pagecolor="#ffffff"
     bordercolor="#666666"
     borderopacity="1.0"
     inkscape:showpageshadow="2"
     inkscape:pageopacity="0.0"
     inkscape:pagecheckerboard="0"
     inkscape:deskcolor="#d1d1d1"
     inkscape:document-units="mm"
     inkscape:zoom="2.9255612"
     inkscape:cx="217.73601"
     inkscape:cy="89.042746"
     inkscape:window-width="1920"
     inkscape:window-height="1017"
     inkscape:window-x="1912"
     inkscape:window-y="-8"
     inkscape:window-maximized="1"
     inkscape:current-layer="layer1" />
  <defs
     id="defs1" />
  <g
     inkscape:label="Layer 1"
     inkscape:groupmode="layer"
     id="layer1"
     transform="translate(-17.256433,-11.916226)">
    <g
       id="text1"
       style="font-size:16.9333px;line-height:1.25;font-family:LeckerliOne;-inkscape-font-specification:LeckerliOne;letter-spacing:0px;word-spacing:0px;stroke-width:0.264583"
       aria-label="H. Ratliff Consulting">
      <path
         style="fill:#260f80"
         d="m 29.399652,15.101517 c -0.541866,0.880532 -1.117598,2.641595 -1.557864,4.470391 -1.015998,-0.01693 -2.252129,-0.03387 -3.318927,-0.03387 0.372533,-1.286931 0.728132,-2.438395 0.846665,-3.28506 0.237066,-0.254 0.406399,-0.863599 0.406399,-1.219198 0,-0.457199 -0.389465,-0.609599 -0.541865,-0.609599 h -0.03387 c -2.370662,0.01693 -5.943588,0.575732 -5.943588,2.404529 0,0.440266 0.186266,0.745065 0.389466,0.745065 0.0508,0 0.118533,-0.01693 0.169333,-0.06773 0.728132,-0.643466 1.303864,-1.117598 3.23426,-1.168398 -0.423332,0.948265 -0.863598,2.235196 -1.253064,3.555993 -1.422397,0.389466 -2.167462,1.117598 -2.167462,1.608664 0,0.101599 0.08467,0.169333 0.220132,0.169333 0.4064,0 0.897465,-0.06773 1.507064,-0.1524 -0.355599,1.49013 -0.609599,2.878661 -0.609599,3.691459 0,1.032932 0.01693,1.64253 0.575733,1.64253 0.948264,0 1.947329,-0.169333 1.947329,-0.999064 0,-1.456264 0.355599,-3.064928 0.761999,-4.605858 0.253999,-0.01693 0.491065,-0.01693 0.761998,-0.01693 0.423333,0 1.659463,0.0508 2.658528,0.08467 -0.270933,1.439331 -0.440266,2.760128 -0.440266,3.555993 0,1.303864 0.423333,1.811863 1.84573,1.811863 0.304799,0 0.677332,-0.101599 0.677332,-0.474132 0,-3.877726 1.507064,-9.753581 1.507064,-11.379178 0,-0.457199 -0.06773,-0.914398 -0.220133,-0.914398 -0.491066,0 -1.202264,0.846665 -1.422397,1.185331 z"
         id="path4" />
      <path
         style="font-size:11.2889px;fill:#260f80"
         d="m 32.368621,26.17025 c 0.191911,0.4064 0.553156,0.756356 0.982134,0.756356 0.620889,0 1.207912,-0.733779 1.207912,-1.546579 0,-0.31609 -0.146755,-0.541868 -0.541867,-0.541868 -0.688623,0 -1.354668,0.564445 -1.648179,1.332091 z"
         id="path5" />
      <path
         style="font-size:12.7px;fill:#260f80"
         d="m 42.304253,26.637328 c 1.3335,0 2.921,-1.4478 2.921,-2.5527 0,-0.2921 -0.1016,-0.4826 -0.2286,-0.4826 -0.2286,0 -1.4097,1.5748 -1.9304,1.5748 -0.6096,0 -0.6858,-1.6002 -1.1811,-2.7305 1.0033,-0.381 2.0193,-1.27 2.0193,-2.8575 0,-1.8923 -1.8161,-2.5527 -3.5814,-2.5527 -2.286,0 -3.6195,1.5494 -3.6195,1.9685 0,0.0889 0.0635,0.1397 0.1651,0.1397 0.7874,0 1.2192,-0.889 3.1496,-0.889 1.3843,0 1.9558,0.6096 1.9558,1.4224 0,1.0033 -0.3302,1.4478 -0.8001,1.8415 -0.1651,-0.1016 -0.3683,-0.1651 -0.5969,-0.1651 -0.4572,0 -0.8636,0.1651 -0.8636,0.508 0,0.4191 0.381,0.6985 0.8255,0.7747 0.508,1.7018 0,4.0005 1.7653,4.0005 z m -3.7084,-7.0104 c -0.8636,1.3843 -1.7653,4.3307 -1.7653,5.9309 0,0.7747 0.1397,1.2319 0.5588,1.2319 0.3302,0 0.6223,-0.1651 0.9398,-0.3175 0.3937,-0.1905 0.5207,-0.5334 0.5207,-0.9398 v -1.8669 c 0,-0.5334 0.8001,-2.8575 0.8001,-4.0767 0,-0.3429 -0.0508,-0.5588 -0.1651,-0.5588 -0.3683,0 -0.7239,0.3429 -0.889,0.5969 z"
         id="path6" />
      <path
         style="font-size:12.7px;font-family:'Franklin Gothic Medium Cond';-inkscape-font-specification:'Franklin Gothic Medium Cond';fill:#260f80"
         d="m 46.131628,22.10958 -1.246436,-0.15503 q 0.124024,-0.837158 0.768946,-1.302246 0.651123,-0.465088 1.593701,-0.465088 0.843359,0 1.345654,0.341065 0.508496,0.334863 0.638721,0.799951 0.130225,0.465088 0.130225,1.407666 v 2.133203 q 0,1.296045 0.111621,1.730127 h -1.221631 q -0.08062,-0.341065 -0.08062,-1.041797 -0.589112,1.196826 -1.761133,1.196826 -0.79375,0 -1.277442,-0.483691 -0.47749,-0.489893 -0.47749,-1.327051 0,-1.023193 0.700733,-1.618506 0.706933,-0.595312 2.443261,-0.595312 0.08682,0 0.272852,0.0062 V 22.48165 q 0,-0.669727 -0.204639,-1.010791 -0.198437,-0.341065 -0.719336,-0.341065 -0.84956,0 -1.016992,0.979786 z m 1.940967,1.438671 q -0.248047,-0.0248 -0.378272,-0.0248 -1.686718,0 -1.686718,1.320849 0,0.961182 0.837158,0.961182 0.489892,0 0.855761,-0.520899 0.372071,-0.520898 0.372071,-1.43247 z m 2.97036,-4.843115 1.165821,-0.111621 v 1.742529 h 1.196826 v 1.041797 h -1.196826 v 2.765723 q 0,0.731738 0.03721,0.973584 0.03721,0.235644 0.223242,0.390674 0.186035,0.148828 0.620117,0.148828 0.229443,0 0.520899,-0.04341 v 1.029394 q -0.520899,0.111621 -0.967383,0.111621 -0.725537,0 -1.11001,-0.279053 -0.384473,-0.285253 -0.489893,-0.768945 -0.10542,-0.483691 -0.10542,-1.475879 v -2.852539 h -0.812353 v -1.041797 h 0.84956 z m 3.23081,-0.570508 h 1.296045 v 8.4646 h -1.296045 z m 4.136184,1.358057 h -1.351856 v -1.370459 h 1.351856 z m -1.32085,0.843359 h 1.289844 v 6.263184 h -1.289844 z m 4.260204,0 h 1.122412 v 1.041797 h -1.122412 v 5.221387 h -1.265039 v -5.221387 h -0.818555 v -1.041797 h 0.818555 q 0.0186,-1.116211 0.192236,-1.53789 0.173633,-0.427881 0.564307,-0.669727 0.396875,-0.241845 1.072802,-0.241845 0.390674,0 0.762744,0.07441 v 1.029394 q -0.26665,-0.04341 -0.489892,-0.04341 -0.384473,0 -0.570508,0.142627 -0.179834,0.142627 -0.223242,0.365869 -0.04341,0.217041 -0.04341,0.880566 z m 3.677295,0 h 1.122412 v 1.041797 h -1.122412 v 5.221387 h -1.265039 v -5.221387 h -0.818554 v -1.041797 h 0.818554 q 0.0186,-1.116211 0.192237,-1.53789 0.173632,-0.427881 0.564306,-0.669727 0.396875,-0.241845 1.072803,-0.241845 0.390674,0 0.762744,0.07441 v 1.029394 q -0.26665,-0.04341 -0.489892,-0.04341 -0.384473,0 -0.570508,0.142627 -0.179834,0.142627 -0.223242,0.365869 -0.04341,0.217041 -0.04341,0.880566 z m 8.470801,3.416846 1.289844,0.179834 q -0.396875,2.821533 -2.771924,2.821533 -1.544092,0 -2.300635,-1.184424 -0.756543,-1.184423 -0.756543,-3.168798 0,-2.139405 0.799951,-3.28042 0.799952,-1.141016 2.306836,-1.141016 2.331641,0 2.734717,2.889746 l -1.302246,0.192237 q -0.21084,-1.922364 -1.426269,-1.922364 -1.624707,0 -1.624707,3.342432 0,3.112988 1.624707,3.112988 0.651123,0 0.967382,-0.471289 0.322461,-0.47749 0.458887,-1.370459 z m 7.019728,-0.347266 q 0,3.348633 -2.480469,3.348633 -1.141015,0 -1.798339,-0.806152 -0.651123,-0.812354 -0.651123,-2.480469 0,-3.28042 2.480468,-3.28042 1.128614,0 1.785938,0.799951 0.663525,0.799952 0.663525,2.418457 z m -1.370459,0.06201 q 0,-1.320849 -0.297656,-1.810742 -0.291455,-0.496094 -0.79375,-0.496094 -1.091406,0 -1.091406,2.306836 0,1.178223 0.254248,1.742529 0.254248,0.564307 0.837158,0.564307 0.576709,0 0.830957,-0.570508 0.260449,-0.576709 0.260449,-1.736328 z m 2.592089,-3.131592 h 1.196826 v 0.967383 q 0.434082,-1.116211 1.550293,-1.116211 0.63252,0 1.016993,0.303858 0.390673,0.303857 0.489892,0.731738 0.10542,0.42168 0.10542,1.339453 v 4.036963 h -1.289844 v -3.96875 q 0,-0.818555 -0.142627,-1.11001 -0.142627,-0.297656 -0.607714,-0.297656 -0.483692,0 -0.756543,0.378271 -0.266651,0.372071 -0.266651,1.488282 v 3.509863 h -1.296045 z m 9.611816,1.463477 -1.010791,0.272852 q -0.279053,-0.942579 -1.0604,-0.942579 -0.359668,0 -0.582911,0.223243 -0.217041,0.223242 -0.217041,0.551904 0,0.37207 0.223243,0.545703 0.223242,0.173633 1.023193,0.434082 0.985986,0.328662 1.420068,0.744141 0.434082,0.409277 0.434082,1.147216 0,0.830957 -0.620117,1.407666 -0.620117,0.570508 -1.674316,0.570508 -1.990576,0 -2.257227,-1.823144 l 1.097608,-0.204639 q 0.210839,1.079004 1.196826,1.079004 0.502295,0 0.74414,-0.248047 0.248047,-0.248047 0.248047,-0.589111 0,-0.235645 -0.167431,-0.465088 -0.167432,-0.235645 -0.936377,-0.483692 -0.73794,-0.235644 -1.116211,-0.440283 -0.372071,-0.204638 -0.613916,-0.589111 -0.241846,-0.390674 -0.241846,-0.880566 0,-0.799952 0.58291,-1.358057 0.58291,-0.564307 1.506885,-0.564307 1.568896,0 2.021582,1.612305 z m 1.165817,-1.463477 h 1.296045 v 3.981153 q 0,0.830957 0.136426,1.116211 0.136426,0.279052 0.601514,0.279052 0.576709,0 0.806152,-0.502295 0.229443,-0.502294 0.229443,-1.860351 v -3.01377 h 1.289844 v 6.263184 H 95.69139 V 25.65665 q -0.502295,1.097607 -1.593701,1.097607 -0.558105,0 -0.917773,-0.235644 -0.353467,-0.235645 -0.508496,-0.669727 -0.15503,-0.434082 -0.15503,-1.506885 z m 5.891118,-2.201416 h 1.296045 v 8.4646 h -1.296045 z m 3.044772,0.570508 1.16582,-0.111621 v 1.742529 h 1.19683 v 1.041797 h -1.19683 v 2.765723 q 0,0.731738 0.0372,0.973584 0.0372,0.235644 0.22324,0.390674 0.18604,0.148828 0.62012,0.148828 0.22944,0 0.5209,-0.04341 v 1.029394 q -0.5209,0.111621 -0.96739,0.111621 -0.72553,0 -1.11001,-0.279053 -0.38447,-0.285253 -0.48989,-0.768945 -0.10542,-0.483691 -0.10542,-1.475879 v -2.852539 h -0.81235 v -1.041797 h 0.84956 z m 4.55166,0.787549 h -1.35186 v -1.370459 h 1.35186 z m -1.32085,0.843359 h 1.28984 v 6.263184 h -1.28984 z m 2.81533,0 h 1.19683 v 0.967383 q 0.43408,-1.116211 1.55029,-1.116211 0.63252,0 1.01699,0.303858 0.39068,0.303857 0.48989,0.731738 0.10542,0.42168 0.10542,1.339453 v 4.036963 H 110.568 v -3.96875 q 0,-0.818555 -0.14263,-1.11001 -0.14262,-0.297656 -0.60771,-0.297656 -0.48369,0 -0.75654,0.378271 -0.26666,0.372071 -0.26666,1.488282 v 3.509863 h -1.29604 z m 10.70943,-0.998388 v 0.948779 q -0.17984,-0.03721 -0.29766,-0.03721 -0.57051,0 -0.67593,0.68833 0.47129,0.595313 0.47129,1.345654 0,0.849561 -0.58911,1.432471 -0.58911,0.58291 -1.5875,0.58291 -0.37827,0 -0.79375,-0.111621 -0.47129,0.179834 -0.47129,0.545703 0,0.31626 0.24805,0.409278 0.25425,0.09302 1.33325,0.148828 0.93018,0.04961 1.40147,0.173632 0.47128,0.124024 0.75034,0.508497 0.28525,0.378271 0.28525,0.998388 0,0.954981 -0.73794,1.444873 -0.73794,0.496094 -2.1022,0.496094 -1.31464,0 -1.92236,-0.434082 -0.60151,-0.427881 -0.60151,-1.141016 0,-0.905371 0.91157,-1.209228 -0.68213,-0.378272 -0.68213,-1.023193 0,-0.818555 0.92398,-1.258838 -0.80616,-0.533301 -0.80616,-1.606104 0,-0.917773 0.61392,-1.48208 0.61391,-0.570508 1.5813,-0.570508 0.63252,0 1.18442,0.272852 0.0992,-0.651123 0.37207,-0.89917 0.27905,-0.254248 0.80615,-0.254248 0.15503,0 0.38448,0.03101 z m -1.83555,2.926953 q 0,-1.227832 -0.84956,-1.227832 -0.92398,0 -0.92398,1.240234 0,1.203027 0.89297,1.203027 0.88057,0 0.88057,-1.215429 z m -1.74253,4.07417 q -0.5395,0.26665 -0.5395,0.799951 0,0.446484 0.34726,0.657324 0.34727,0.21084 1.15342,0.21084 1.48828,0 1.48828,-0.861963 0,-0.42168 -0.28525,-0.576709 -0.27905,-0.16123 -1.11001,-0.186035 -0.70073,-0.0248 -1.0542,-0.04341 z"
         id="path7" />
    </g>
  </g>
</svg>
