<?xml version="1.0" encoding="UTF-8" standalone="no"?>
<!-- Created with Inkscape (http://www.inkscape.org/) -->

<svg
   xmlns:dc="http://purl.org/dc/elements/1.1/"
   xmlns:cc="http://creativecommons.org/ns#"
   xmlns:rdf="http://www.w3.org/1999/02/22-rdf-syntax-ns#"
   xmlns:svg="http://www.w3.org/2000/svg"
   xmlns="http://www.w3.org/2000/svg"
   xmlns:sodipodi="http://sodipodi.sourceforge.net/DTD/sodipodi-0.dtd"
   xmlns:inkscape="http://www.inkscape.org/namespaces/inkscape"
   version="1.1"
   id="svg3879"
   xml:space="preserve"
   width="146.72267"
   height="122.34933"
   viewBox="0 0 146.72267 122.34933"
   sodipodi:docname="triangle-circle.svg"
   inkscape:version="0.92.4 (5da689c313, 2019-01-14)"><metadata
     id="metadata3885"><rdf:RDF><cc:Work
         rdf:about=""><dc:format>image/svg+xml</dc:format><dc:type
           rdf:resource="http://purl.org/dc/dcmitype/StillImage" /><dc:title></dc:title></cc:Work></rdf:RDF></metadata><defs
     id="defs3883" /><sodipodi:namedview
     pagecolor="#ffffff"
     bordercolor="#666666"
     borderopacity="1"
     objecttolerance="10"
     gridtolerance="10"
     guidetolerance="10"
     inkscape:pageopacity="0"
     inkscape:pageshadow="2"
     inkscape:window-width="640"
     inkscape:window-height="480"
     id="namedview3881"
     showgrid="false"
     inkscape:zoom="1.9289031"
     inkscape:cx="73.361336"
     inkscape:cy="61.174664"
     inkscape:window-x="0"
     inkscape:window-y="0"
     inkscape:window-maximized="0"
     inkscape:current-layer="g3887" /><g
     id="g3887"
     inkscape:groupmode="layer"
     inkscape:label="triangle-circle"
     transform="matrix(1.3333333,0,0,-1.3333333,0,122.34933)"><g
       id="g3889"
       transform="translate(15.72,34.897)"><g
         id="g3891"><g
           id="g3893"><g
             id="g3895"><g
               id="g3897"><g
                 id="g3899" /></g></g><g
             id="g3901"><g
               id="g3903"
               transform="translate(-12.399,-5.705)"><g
                 id="g3905"><g
                   id="g3907"
                   transform="translate(-3.321,-29.192)"><text
                     transform="matrix(1,0,0,-1,3.321,29.192)"
                     style="font-variant:normal;font-weight:normal;font-size:9.96259975px;font-family:CMMI10;-inkscape-font-specification:CMMI10;writing-mode:lr-tb;fill:#000000;fill-opacity:1;fill-rule:nonzero;stroke:none"
                     id="text3911"><tspan
                       x="0"
                       y="0"
                       id="tspan3909">F</tspan></text>
<g
                     id="g3913"
                     transform="translate(3.321,29.192)" /></g></g><g
                 id="g3915"
                 transform="translate(12.399,5.705)" /></g></g><path
             d="M 1.99255,0 C 1.99255,1.10046 1.10046,1.99255 0,1.99255 -1.10046,1.99255 -1.99255,1.10046 -1.99255,0 c 0,-1.10046 0.89209,-1.99255 1.99255,-1.99255 1.10046,0 1.99255,0.89209 1.99255,1.99255 z"
             style="fill:#000000;fill-opacity:1;fill-rule:nonzero;stroke:none"
             id="path3917"
             inkscape:connector-curvature="0" /><g
             id="g3919"><g
               id="g3921"
               transform="translate(22.677,45.354)"><g
                 id="g3923" /><g
                 id="g3925"
                 transform="translate(-22.677,-45.354)" /></g></g><g
             id="g3927"><g
               id="g3929"
               transform="translate(13.091,46.736)"><g
                 id="g3931"><g
                   id="g3933"
                   transform="translate(-28.811,-81.633)"><text
                     transform="matrix(1,0,0,-1,28.811,81.633)"
                     style="font-variant:normal;font-weight:normal;font-size:9.96259975px;font-family:CMMI10;-inkscape-font-specification:CMMI10;writing-mode:lr-tb;fill:#000000;fill-opacity:1;fill-rule:nonzero;stroke:none"
                     id="text3937"><tspan
                       x="0"
                       y="0"
                       id="tspan3935">G</tspan></text>
<g
                     id="g3939"
                     transform="translate(28.811,81.633)" /></g></g><g
                 id="g3941"
                 transform="translate(-13.091,-46.736)" /></g></g><path
             d="m 24.67007,45.35506 c 0,1.10046 -0.89209,1.99255 -1.99255,1.99255 -1.10048,0 -1.99255,-0.89209 -1.99255,-1.99255 0,-1.10048 0.89207,-1.99256 1.99255,-1.99256 1.10046,0 1.99255,0.89208 1.99255,1.99256 z"
             style="fill:#000000;fill-opacity:1;fill-rule:nonzero;stroke:none"
             id="path3943"
             inkscape:connector-curvature="0" /><g
             id="g3945"><g
               id="g3947"
               transform="translate(79.37,-11.339)"><g
                 id="g3949" /><g
                 id="g3951"
                 transform="translate(-79.37,11.339)" /></g></g><g
             id="g3953"><g
               id="g3955"
               transform="translate(81.911,-18.46)"><g
                 id="g3957"><g
                   id="g3959"
                   transform="translate(-97.631,-16.437)"><text
                     transform="matrix(1,0,0,-1,97.631,16.437)"
                     style="font-variant:normal;font-weight:normal;font-size:9.96259975px;font-family:CMMI10;-inkscape-font-specification:CMMI10;writing-mode:lr-tb;fill:#000000;fill-opacity:1;fill-rule:nonzero;stroke:none"
                     id="text3963"><tspan
                       x="0"
                       y="0"
                       id="tspan3961">H</tspan></text>
<g
                     id="g3965"
                     transform="translate(97.631,16.437)" /></g></g><g
                 id="g3967"
                 transform="translate(-81.911,18.46)" /></g></g><path
             d="m 81.3637,-11.33855 c 0,1.10048 -0.8921,1.99255 -1.99256,1.99255 -1.10048,0 -1.99255,-0.89207 -1.99255,-1.99255 0,-1.10046 0.89207,-1.99255 1.99255,-1.99255 1.10046,0 1.99256,0.89209 1.99256,1.99255 z"
             style="fill:#000000;fill-opacity:1;fill-rule:nonzero;stroke:none"
             id="path3969"
             inkscape:connector-curvature="0" /><path
             d="m 0.34866,0.69739 21.98032,43.96026 m 1.04593,2e-5 55.29924,-55.29881 m -4.1e-4,-0.5979 -77.97635,11.13951"
             style="fill:none;stroke:#000000;stroke-width:0.3985;stroke-linecap:butt;stroke-linejoin:miter;stroke-miterlimit:10;stroke-dasharray:none;stroke-opacity:1"
             id="path3971"
             inkscape:connector-curvature="0" /><g
             id="g3973" /><g
             id="g3975" /><g
             id="g3977" /><g
             id="g3979"><g
               id="g3981"
               transform="translate(11.338,22.677)"><g
                 id="g3983" /><g
                 id="g3985"
                 transform="translate(-11.338,-22.677)" /></g></g><path
             d="m 12.33482,22.67752 c 0,0.55023 -0.44604,0.99628 -0.99627,0.99628 -0.55025,0 -0.99628,-0.44605 -0.99628,-0.99628 0,-0.55025 0.44603,-0.99628 0.99628,-0.99628 0.55023,0 0.99627,0.44603 0.99627,0.99628 z"
             style="fill:#000000;fill-opacity:1;fill-rule:nonzero;stroke:none"
             id="path3987"
             inkscape:connector-curvature="0" /><g
             id="g3989"><g
               id="g3991"
               transform="translate(51.023,17.008)"><g
                 id="g3993" /><g
                 id="g3995"
                 transform="translate(-51.023,-17.008)" /></g></g><path
             d="m 52.0206,17.00824 c 0,0.55023 -0.44605,0.99628 -0.99628,0.99628 -0.55023,0 -0.99627,-0.44605 -0.99627,-0.99628 0,-0.55023 0.44604,-0.99628 0.99627,-0.99628 0.55023,0 0.99628,0.44605 0.99628,0.99628 z"
             style="fill:#000000;fill-opacity:1;fill-rule:nonzero;stroke:none"
             id="path3997"
             inkscape:connector-curvature="0" /><g
             id="g3999"><g
               id="g4001"
               transform="translate(39.685,-5.67)"><g
                 id="g4003" /><g
                 id="g4005"
                 transform="translate(-39.685,5.67)" /></g></g><path
             d="m 40.68163,-5.66927 c 0,0.55024 -0.44605,0.99628 -0.99628,0.99628 -0.55023,0 -0.99628,-0.44604 -0.99628,-0.99628 0,-0.55023 0.44605,-0.99627 0.99628,-0.99627 0.55023,0 0.99628,0.44604 0.99628,0.99627 z"
             style="fill:#000000;fill-opacity:1;fill-rule:nonzero;stroke:none"
             id="path4007"
             inkscape:connector-curvature="0" /><g
             id="g4009" /><g
             id="g4011" /><g
             id="g4013" /><g
             id="g4015"><g
               id="g4017"
               transform="translate(41.575,7.559)"><g
                 id="g4019" /><g
                 id="g4021"
                 transform="translate(-41.575,-7.559)" /></g></g><g
             id="g4023"><g
               id="g4025"
               transform="translate(44.723,1.854)"><g
                 id="g4027"><g
                   id="g4029"
                   transform="translate(-60.443,-36.751)"><text
                     transform="matrix(1,0,0,-1,60.443,36.751)"
                     style="font-variant:normal;font-weight:normal;font-size:9.96259975px;font-family:CMMI10;-inkscape-font-specification:CMMI10;writing-mode:lr-tb;fill:#000000;fill-opacity:1;fill-rule:nonzero;stroke:none"
                     id="text4033"><tspan
                       x="0"
                       y="0"
                       id="tspan4031">O</tspan></text>
<g
                     id="g4035"
                     transform="translate(60.443,36.751)" /></g></g><g
                 id="g4037"
                 transform="translate(-44.723,-1.854)" /></g></g><path
             d="m 83.83234,7.55902 c 0,23.33808 -18.91874,42.25681 -42.25681,42.25681 -23.33807,0 -42.25679,-18.91873 -42.25679,-42.25681 0,-23.33806 18.91872,-42.25679 42.25679,-42.25679 23.33807,0 42.25681,18.91873 42.25681,42.25679 z"
             style="fill:none;stroke:#000000;stroke-width:0.3985;stroke-linecap:butt;stroke-linejoin:miter;stroke-miterlimit:10;stroke-dasharray:none;stroke-opacity:1"
             id="path4039"
             inkscape:connector-curvature="0" /><path
             d="m 43.56808,7.55902 c 0,1.10048 -0.89207,1.99255 -1.99255,1.99255 -1.10046,0 -1.99255,-0.89207 -1.99255,-1.99255 0,-1.10046 0.89209,-1.99255 1.99255,-1.99255 1.10048,0 1.99255,0.89209 1.99255,1.99255 z"
             style="fill:#000000;fill-opacity:1;fill-rule:nonzero;stroke:none"
             id="path4041"
             inkscape:connector-curvature="0" /><g
             id="g4043" /><g
             id="g4045"><path
               d="M 40.87814,7.90767 12.03593,22.32889"
               style="fill:none;stroke:#000000;stroke-width:0.3985;stroke-linecap:butt;stroke-linejoin:miter;stroke-miterlimit:10;stroke-dasharray:0.3985, 0.99628;stroke-dashoffset:0;stroke-opacity:1"
               id="path4047"
               inkscape:connector-curvature="0" /></g><g
             id="g4049" /><g
             id="g4051" /><g
             id="g4053" /><path
             d="m 11.33855,22.67752 -1.26734,-2.53554 2.53553,-1.26732 1.26733,2.53553 z"
             style="fill:none;stroke:#000000;stroke-width:0.3985;stroke-linecap:butt;stroke-linejoin:miter;stroke-miterlimit:10;stroke-dasharray:none;stroke-opacity:1"
             id="path4055"
             inkscape:connector-curvature="0" /><g
             id="g4057"><path
               d="m 42.27284,8.25641 8.05422,8.05444"
               style="fill:none;stroke:#000000;stroke-width:0.3985;stroke-linecap:butt;stroke-linejoin:miter;stroke-miterlimit:10;stroke-dasharray:0.3985, 0.99628;stroke-dashoffset:0;stroke-opacity:1"
               id="path4059"
               inkscape:connector-curvature="0" /></g><g
             id="g4061" /><g
             id="g4063" /><g
             id="g4065" /><path
             d="m 51.02432,17.00824 -2.00438,2.00438 -2.00438,-2.00438 2.00438,-2.00438 z"
             style="fill:none;stroke:#000000;stroke-width:0.3985;stroke-linecap:butt;stroke-linejoin:miter;stroke-miterlimit:10;stroke-dasharray:none;stroke-opacity:1"
             id="path4067"
             inkscape:connector-curvature="0" /><g
             id="g4069"><path
               d="M 41.4759,6.86163 39.78497,-4.97188"
               style="fill:none;stroke:#000000;stroke-width:0.3985;stroke-linecap:butt;stroke-linejoin:miter;stroke-miterlimit:10;stroke-dasharray:0.3985, 0.99628;stroke-dashoffset:0;stroke-opacity:1"
               id="path4071"
               inkscape:connector-curvature="0" /></g><g
             id="g4073" /><g
             id="g4075" /><g
             id="g4077" /><path
             d="m 39.68535,-5.66927 2.8063,-0.40053 0.40096,2.80631 -2.80631,0.40053 z"
             style="fill:none;stroke:#000000;stroke-width:0.3985;stroke-linecap:butt;stroke-linejoin:miter;stroke-miterlimit:10;stroke-dasharray:none;stroke-opacity:1"
             id="path4079"
             inkscape:connector-curvature="0" /><path
             d="M 0.69739,0.12675 40.87814,7.43227"
             style="fill:none;stroke:#000000;stroke-width:0.3985;stroke-linecap:butt;stroke-linejoin:miter;stroke-miterlimit:10;stroke-dasharray:none;stroke-opacity:1"
             id="path4081"
             inkscape:connector-curvature="0" /><g
             id="g4083"><g
               id="g4085"
               transform="translate(12.62,4.816)"><g
                 id="g4087"><g
                   id="g4089"
                   transform="translate(-28.34,-39.713)"><text
                     transform="matrix(1,0,0,-1,28.34,39.713)"
                     style="font-variant:normal;font-weight:normal;font-size:9.96259975px;font-family:CMMI10;-inkscape-font-specification:CMMI10;writing-mode:lr-tb;fill:#000000;fill-opacity:1;fill-rule:nonzero;stroke:none"
                     id="text4093"><tspan
                       x="0"
                       y="0"
                       id="tspan4091">R</tspan></text>
<g
                     id="g4095"
                     transform="translate(28.34,39.713)" /></g></g><g
                 id="g4097"
                 transform="translate(-12.62,-4.816)" /></g></g></g></g></g></g></svg>